<?xml version="1.0" encoding="utf-8"?>
<!-- Generator: Adobe Illustrator 19.0.0, SVG Export Plug-In . SVG Version: 6.00 Build 0)  -->
<svg version="1.1" id="layer" xmlns="http://www.w3.org/2000/svg" xmlns:xlink="http://www.w3.org/1999/xlink" x="0px" y="0px"
	 viewBox="-153 -46 652 652" style="enable-background:new -153 -46 652 652;" xml:space="preserve">
<style type="text/css">
	.st0{fill:#8CB61D;}
	.st1{fill:#399947;}
</style>
<g>
	<path class="st0" d="M-34.3,381.1c-27-5.4-51.9-20.2-66.9-43.6c-15.5-24.1-20.4-55.2-10.5-82.3c9.1-24.9,29.3-44.8,55.1-51.9
		C-30,196,1,203.3,19,224.9c19.5,23.5,18.6,61.3-5.7,81.2c11.3-14.1,12.2-26.1,12.8-32.7c1.2-12.8-1.6-26.3-8.6-37.2
		c-13.4-20.8-39.1-31-63.2-27.5c-25.1,3.6-46.3,20.7-56.4,43.7c-10.3,23.4-8.2,50.4,3.3,73c13.2,25.8,38.3,42.1,66.2,47.7
		L-34.3,381.1C-42.9,379.4-34.3,381.1-34.3,381.1"/>
	<path class="st1" d="M-131.7,282.4c0.3-53,44.6-97.6,97.7-97.3c26.1,0.1,50.9,13.2,65.4,35.1c14,21.2,17.8,50.1,5.5,72.9
		C24,317.2-6,332.1-32.8,323.9c23.8,2.2,47.5-6.2,60.3-27.4c13.5-22.2,10.7-49.6-2.6-71.1C-1,183.7-59,183.9-93.3,214.7
		c-19.2,17.2-31.2,41.8-30.9,67.8L-131.7,282.4C-131.6,274.3-131.7,282.4-131.7,282.4"/>
	<path d="M-55.4,266.6c1.3-0.6,2.9-1,4.4-1c1.8,0,3,0.2,4.2,0.8c2,1,3.3,3.2,3.8,5.1h-16.7C-59,269.8-57.7,267.8-55.4,266.6
		 M-42.2,283.2c-1,2.4-4.2,5-8.7,5c-1.6,0-3.1-0.3-4.4-1c-4.7-2.3-5.2-8-5.2-10.3v-0.2h23.2v-2.3c0-4.4-2.1-9.9-6.9-12.4
		c-1.9-0.9-4.2-1.4-6.7-1.4c-2.3,0-4.6,0.5-6.6,1.4c-5.2,2.5-8.1,7.9-8.1,15c0,7,3,12.5,8.2,15c2,0.9,4.3,1.4,6.6,1.4
		c6.9,0,11.7-4.1,13.4-8.1l0.9-2.1l-4.8-2L-42.2,283.2z"/>
	<path d="M-24.8,257.4c0-2.6,0.6-10.9,7.9-10.9c3.9,0,3.9,1.3,3.9,1.9c0,0.6-0.1,1-0.4,1.5l-1.1,2.2l4.8,2.1l0.9-2.1
		c0.4-0.9,0.9-2.1,0.9-3.7c0-3.2-2.4-7-9-7c-8.1,0-13.1,6.2-13.1,16.1v3.6h-5.4v5.1h5.4v21.6h-4.9v5.1h15.3v-5.1h-5.3v-21.6h9V261
		h-9V257.4z"/>
	<path d="M9.6,280.3l-0.9,2.1c-0.7,1.7-3,5.7-8.7,5.7c-1.6,0-3-0.3-4.4-1c-4.8-2.3-5.3-7.9-5.3-10.2c0-1.8,0.4-7.9,5.4-10.2
		c1.4-0.7,3-1,4.6-1c2.2,0,7.5,0.4,7.5,4.2c0,0.5-0.2,1-0.3,1.2l-1.1,2.2l4.7,2l1-1.9c0.6-1.1,0.9-2.2,0.9-3.6
		c0-5.8-4.8-9.4-12.7-9.4c-2.3,0-4.7,0.5-6.8,1.5c-5.3,2.4-8.4,8-8.4,14.9c0,6.8,3.1,12.4,8.2,14.8c1.5,0.7,3.8,1.5,6.7,1.5
		c8.9,0,12.5-6.7,13.4-8.8l0.9-2.2L9.6,280.3z"/>
	<path class="st0" d="M43.8,312.4c-15.8,19.9-42.1,32.4-67.6,27.8c-0.1,0-0.2,0-0.3-0.1c-8.7-0.7-17.3-2.9-25.1-6.9
		c-23.3-11.9-34.8-39.6-29.5-64.9c3.9-18.5,17.2-33.6,34.5-41c-29.5,5.1-46,33.7-42.9,62.3c2.9,26.7,22.8,48.4,48.5,55.2
		c25.2,6.6,52.8,0.6,73.2-15.6c21-16.7,31-42.7,31.7-69c0.7-27.2-10.4-53.4-30.6-71.6l-5.1,5.7c13,11.7,21.8,26.8,25.8,43.3
		c0.2,0.5,0.4,1.1,0.6,1.7C64.9,264.2,60.1,291.9,43.8,312.4"/>
	<path class="st0" d="M-47,222.3c-24.9,6.2-44.9,26.7-48.7,52.3c-3.8,25.7,8.2,52.3,28.4,68.1c21,16.3,48.4,20.1,73.9,14.4
		c26-5.8,47.9-22.3,60.3-45.9l1.7,0.9c0.7-1.2,1.4-2.5,2-3.8l-7.1-3.7C52.2,327.2,32.2,345,7.3,351.1c-23.8,5.8-50.1,2.6-70.2-11.9
		c-20.8-14.9-31.9-40.8-28.4-66.1c3.5-25.3,24.9-45.1,49.4-50c9.1-1.8,18.1-1.8,27.2,0.7c6,1.6,11.8,4.5,17,7.9
		c2.4,1.6,4.7,3.4,6.9,5.3c1.5,1.3,3.4,2.9,4.7,4.1c0,0,0,0,0,0c-15-13.6-23.6-16.7-30.4-18.6C-26.6,219.7-37,219.8-47,222.3"/>
	<path class="st1" d="M11.4,358.2c-25.5,6.9-53.8,4-76-10.8c-21.8-14.5-34.9-39.1-35-65.3c-0.1-26.7,16.3-51.6,40.9-62.1
		c26.1-11.2,57.6-4.3,72.6,20.9c0,0,0,0,0,0c-16.2-27.2-51.3-34.1-78.7-20.2c-24.7,12.5-39.8,37.6-39.2,65.3
		c0.6,27.1,15,52.1,37.5,67.1c23.3,15.5,52.5,18,79.2,11.2c26.8-6.8,48.8-24.8,61.8-49l-5.7-3.1C56.1,334.3,36.3,351.4,11.4,358.2"
		/>
	<path class="st1" d="M-58.8,220.1c-24.5,10.5-40.9,35.4-40.9,62.1c0.1,26.2,13.2,50.8,35,65.3c22.2,14.7,50.6,17.7,76.1,10.8
		c25-6.7,44.8-23.9,57.4-46.1l-1.7-0.9c-12.4,23.6-34.3,40.1-60.3,45.9c-25.5,5.6-52.9,1.9-73.9-14.4
		c-20.3-15.8-32.3-42.3-28.4-68.1c3.8-25.6,23.8-46,48.7-52.3c10-2.5,20.4-2.6,30.4,0.1c6.9,1.8,15.4,5,30.4,18.6
		C-1.2,215.8-32.7,208.9-58.8,220.1"/>
	<path class="st1" d="M10.5,192c39.9,23.1,58,78.3,26.3,115.7C20.4,327.1-4.8,338.1-30,332.2c-24.1-5.7-39.4-25.6-44.7-48.9
		c0.5,27.9,23.8,51.9,50.6,56.8c15.2,1.2,30.9-2.4,44.1-9.8c23.6-13.3,36-37.5,38.5-64c0.9-9.8,0.2-19.4-2.1-28.6
		c-16.9-49.6-72.3-77.1-122.2-61.2l2.2,7.1C-38.9,175.2-11.8,179.1,10.5,192"/>
	<path class="st1" d="M58.5,266.3C56,292.8,43.6,317,20,330.3c-13.2,7.4-28.9,11-44.1,9.8c0.1,0,0.2,0,0.3,0.1
		c25.5,4.6,51.8-7.9,67.6-27.8c16.3-20.5,21.1-48.2,13.2-73c-0.2-0.6-0.4-1.1-0.6-1.7C58.6,246.9,59.4,256.6,58.5,266.3"/>
	<path d="M114.6,273.1c1.1-0.5,2.3-0.8,3.6-0.8c1.5,0,2.5,0.2,3.5,0.7c1.9,0.9,3,3,3.4,4.8h-14.3
		C111.3,276.2,112.3,274.2,114.6,273.1 M126,285.3l-0.6,1.3c-0.9,2-3.5,4.2-7.2,4.2c-1.3,0-2.6-0.3-3.6-0.8
		c-3.9-1.9-4.3-6.6-4.3-8.5V281h18.2v-1.5c0-3.3-1.6-7.5-5.2-9.4c-1.4-0.7-3.2-1.1-5.1-1.1c-1.8,0-3.5,0.4-5,1.1
		c-3.9,1.9-6.2,6.1-6.2,11.4c0,5.4,2.3,9.5,6.2,11.4c1.5,0.7,3.2,1.1,5,1.1c5.2,0,8.9-3.1,10.2-6.1l0.6-1.3L126,285.3z"/>
	<path d="M179.5,293.7v-3.2h3.6v-14.7c0-1.3-0.4-2.2-1.1-2.7c-0.7-0.5-1.7-0.7-3.3-0.7c-3.6,0-5.8,1.4-7.9,3.6v14.6h3.6v3.2h-10.8
		v-3.2h3.9v-17.8h-3.9v-3.2h7.2v2.2c2.3-1.7,4.8-2.5,7.9-2.5c2.2,0,3.8,0.4,5.1,1.3c1.2,0.8,2.6,2.4,2.6,5.4v14.7h3.9v3.2H179.5z"/>
	<path d="M253.1,294.1c-2.2,0-4-0.6-5.1-1.2c-3.9-1.9-6.2-6.1-6.2-11.3c0-5.3,2.4-9.5,6.4-11.4c1.6-0.7,3.4-1.1,5.2-1.1
		c5.9,0,9.6,2.7,9.6,6.9c0,1-0.2,1.8-0.6,2.6l-0.6,1.2l-3-1.3l0.7-1.4c0.1-0.2,0.3-0.6,0.3-1.1c0-3.4-4.4-3.7-6.3-3.7
		c-1.3,0-2.7,0.3-3.8,0.8c-4.2,2-4.5,6.9-4.5,8.4c0,1.9,0.4,6.5,4.4,8.5c1.2,0.6,2.4,0.8,3.7,0.8c4.7,0,6.6-3.3,7.2-4.7l0.6-1.3
		l3,1.3l-0.6,1.3C262.6,289,259.9,294.1,253.1,294.1"/>
	<path d="M330.3,294.1c-2.2,0-4-0.6-5.1-1.2c-3.9-1.9-6.2-6.1-6.2-11.3c0-5.3,2.4-9.5,6.4-11.4c1.6-0.7,3.4-1.1,5.2-1.1
		c5.9,0,9.6,2.7,9.6,6.9c0,1-0.2,1.8-0.6,2.6l-0.6,1.2l-2.9-1.3l0.7-1.4c0.1-0.2,0.3-0.6,0.3-1.1c0-3.4-4.4-3.7-6.3-3.7
		c-1.3,0-2.7,0.3-3.8,0.8c-4.2,2-4.5,6.9-4.5,8.4c0,1.9,0.4,6.5,4.4,8.5c1.2,0.6,2.4,0.8,3.7,0.8c4.7,0,6.6-3.3,7.2-4.7l0.6-1.3
		l3,1.3l-0.6,1.3C339.8,289,337.1,294.1,330.3,294.1"/>
	<path d="M366.8,293.7v-3.2h3.9v-17.8h-3.9v-3.2h7.2v2.1c1.9-1.6,3.7-2.4,5.7-2.4c4.3,0,4.8,2.9,4.8,4.2c0,1.2-0.4,2.3-1.1,3.2
		l-0.8,1l-2.7-1.8l0.9-1.2c0.1-0.2,0.4-0.7,0.4-1.2c0-0.5,0-1-1.5-1c-2.2,0-4.1,1.9-5.7,3.9v14.3h4.1v3.2H366.8z"/>
	<path d="M403.7,277.8c-0.4-1.7-1.4-3.8-3.3-4.8c-1-0.5-2-0.7-3.5-0.7c-1.3,0-2.6,0.3-3.6,0.8c-2.2,1.1-3.3,3.1-3.8,4.7H403.7z
		 M396.8,294.1c-1.8,0-3.5-0.3-5-1.1c-3.9-1.9-6.2-6.1-6.2-11.4c0-5.3,2.3-9.5,6.2-11.4c1.6-0.7,3.3-1.1,5-1.1
		c1.9,0,3.6,0.4,5.1,1.1c3.6,1.8,5.2,6,5.2,9.4v1.5h-18.3c0,0.2,0,0.4,0,0.6c0,1.9,0.4,6.6,4.3,8.5c1.1,0.5,2.3,0.8,3.6,0.8
		c3.7,0,6.4-2.2,7.2-4.2l0.6-1.3l3,1.3l-0.6,1.3C405.7,291,402.1,294.1,396.8,294.1"/>
	<path d="M427.8,277.8c-0.4-1.7-1.4-3.8-3.3-4.8c-1-0.5-2-0.7-3.5-0.7c-1.3,0-2.6,0.3-3.7,0.8c-2.2,1.1-3.3,3.1-3.8,4.7H427.8z
		 M421,294.1c-1.8,0-3.5-0.3-5-1.1c-3.9-1.9-6.2-6.1-6.2-11.4c0-5.3,2.3-9.5,6.2-11.4c1.6-0.7,3.3-1.1,5-1.1c1.9,0,3.6,0.4,5.1,1.1
		c3.6,1.8,5.2,6,5.2,9.4v1.5h-18.3c0,0.2,0,0.4,0,0.6c0,1.9,0.4,6.6,4.3,8.5c1.1,0.5,2.3,0.8,3.6,0.8c3.7,0,6.4-2.2,7.2-4.2l0.6-1.3
		l3,1.3l-0.6,1.3C429.9,291,426.3,294.1,421,294.1"/>
	<path d="M460.5,294.1c-1.9,0-3.8-0.6-5.3-1.7v1.4h-3.3v-9.3h3.1l0.1,1.4c0.3,4.1,3.5,5.1,5.4,5.1c2.8,0,4.6-1.6,4.6-4
		c0-2.1-1-3.2-3.5-3.9c-0.4-0.1-1.3-0.3-2-0.4l-0.1,0c-0.4-0.1-0.7-0.1-0.9-0.2c-2.6-0.5-6.1-1.8-6.1-6.7c0-3.8,3.1-6.6,7.2-6.6
		c1.8,0,3.2,0.4,4.4,1.3v-1.5h3.3v10h-3.1l-0.2-1.3c-0.2-1.9-0.8-3.5-1.5-4.3c-0.8-0.9-2-1.1-2.9-1.1c-1.9,0-3.9,1.2-3.9,3.4
		c0,1.8,0.6,2.9,3.6,3.5c0.2,0.1,0.5,0.1,0.8,0.2c0.8,0.2,1.8,0.4,2.3,0.5c4,1,6,3.4,6,7C468.3,291.1,465.1,294.1,460.5,294.1"/>
	<path d="M231,293.7v-3.2h3.6v-14.7c0-1.3-0.4-2.2-1.1-2.7c-0.7-0.5-1.7-0.7-3.3-0.7c-3.6,0-5.8,1.4-7.9,3.6v14.6h3.6v3.2h-10.7
		v-3.2h3.8v-17.8h-3.9v-3.2h7.2v2.2c2.3-1.7,4.9-2.5,7.9-2.5c2.2,0,3.8,0.4,5.1,1.3c1.2,0.8,2.6,2.4,2.6,5.4v14.7h3.8v3.2H231z"/>
	<path d="M271,263.9c-1.1,0-1.9-0.9-1.9-1.9c0-1,0.9-1.9,1.9-1.9c1.1,0,1.9,0.9,1.9,1.9C272.9,263,272,263.9,271,263.9"/>
</g>
<polygon points="265.7,293.7 265.7,290.5 269.5,290.5 269.5,272.7 265.6,272.7 265.6,269.5 272.8,269.5 272.8,290.5 276.7,290.5 
	276.7,293.7 "/>
<g>
	<path d="M432.8,293.7v-3.2h3.9v-17.8h-3.9v-3.2h7.2v2.1c1.9-1.6,3.7-2.4,5.7-2.4c4.3,0,4.8,2.9,4.8,4.2c0,1.2-0.4,2.3-1.1,3.2
		l-0.8,1l-2.7-1.8l0.9-1.2c0.1-0.2,0.4-0.7,0.4-1.2c0-0.5,0-1-1.5-1c-2.2,0-4.1,1.9-5.7,3.9v14.3h4.1v3.2H432.8z"/>
</g>
<polygon points="150.3,293.7 150.3,290.5 154.2,290.5 154.2,272.7 150.2,272.7 150.2,269.5 157.4,269.5 157.4,290.5 161.4,290.5 
	161.4,293.7 "/>
<polygon points="150.3,293.7 150.3,290.5 154.2,290.5 154.2,272.7 150.2,272.7 150.2,269.5 157.4,269.5 157.4,290.5 161.4,290.5 
	161.4,293.7 "/>
<g>
	<path d="M140.8,272.7h7.1l0-3.2h-7.1l0-2.9c0-1.5,0.3-6.4,4.5-8.4c1.1-0.5,2.5-0.8,3.8-0.8c1.9,0,6.3,0.4,6.3,3.7h0h0
		c0,0.1,0,0.3,0,0.3c0,0-0.3,0-0.3,0c-1.2,0.1-2.2,1.1-2.2,2.4c0,1.3,1.1,2.4,2.4,2.4c0.7,0,1.2-0.3,1.7-0.7
		c1.2-1.2,1.6-3.1,1.6-3.1c0.1-0.4,0.1-0.8,0.1-1.2c0-4.3-3.6-6.9-9.5-6.9c-1.8,0-3.6,0.4-5.1,1.1c-4,1.8-6.3,6-6.3,11.3l0,2.9h-4.2
		l0,3.2h4.3v17.8h-3.8v3.2h11.2v-3.2h-4.1V272.7z"/>
	<path d="M293,287.7c-1.6,1.5-4,3.2-7,3.2c-2.9,0-3.9-1.7-3.9-3.2c0-2.4,1.5-3.8,4.5-4.2c1.3-0.2,4.1-0.4,6.4-0.5V287.7z
		 M297.7,290.8c-1,0-1.4-0.1-1.4-1.6v-14.3c0-2.7-1.1-4.4-3.4-5.3c-1.1-0.4-2.4-0.6-4-0.6c-4.3,0-8.7,2-8.7,6.6
		c0,1.5,0.6,2.6,1.1,3.2l0.8,1l2.6-1.8l-0.9-1.2c0-0.1-0.4-0.5-0.4-1.2c0-2.6,3.4-3.3,5.5-3.3c1.2,0,2,0.1,2.8,0.4
		c0.9,0.3,1.3,0.8,1.3,2.2v4.7c-2.4,0.1-5.3,0.4-6.9,0.6c-4.6,0.7-7.3,3.4-7.3,7.4c0,3.2,2.4,6.4,7.1,6.4c3.2,0,5.7-1.3,7.4-2.5
		c0.7,1.7,2.2,2.5,4.3,2.5c1.3,0,2.5-0.6,3.6-1.6l-2.3-2.4C298.4,290.8,298,290.8,297.7,290.8"/>
	<path d="M357.3,287.7c-1.6,1.5-4,3.2-7,3.2c-2.9,0-3.9-1.7-3.9-3.2c0-2.4,1.5-3.8,4.5-4.2c1.3-0.2,4.1-0.4,6.4-0.5V287.7z
		 M362,290.8c-1,0-1.4-0.1-1.4-1.6v-14.3c0-2.7-1.1-4.4-3.4-5.3c-1.1-0.4-2.4-0.6-4-0.6c-4.3,0-8.7,2-8.7,6.6c0,1.5,0.6,2.6,1.1,3.2
		l0.8,1l2.6-1.8l-0.9-1.2c0-0.1-0.4-0.5-0.4-1.2c0-2.6,3.4-3.3,5.5-3.3c1.2,0,2.1,0.1,2.8,0.4c0.9,0.3,1.3,0.8,1.3,2.2v4.7
		c-2.4,0.1-5.4,0.4-6.9,0.6c-4.6,0.7-7.3,3.4-7.3,7.4c0,3.2,2.4,6.4,7.1,6.4c3.2,0,5.7-1.3,7.4-2.5c0.7,1.7,2.2,2.5,4.3,2.5
		c1.3,0,2.5-0.6,3.6-1.6l-2.2-2.4C362.7,290.8,362.3,290.8,362,290.8"/>
	<path d="M302.8,293.7v-3.2h3.9v-33.1c-0.2,0-0.5,0-0.7,0h-3.2v-3.2h2.9c1,0,2.1-0.1,2.3-0.2l0.2,0h1.8v36.5h4v3.2H302.8z"/>
	<path d="M205.7,287.7c-1.6,1.5-4,3.2-7,3.2c-2.9,0-3.9-1.7-3.9-3.2c0-2.4,1.5-3.8,4.5-4.2c1.2-0.2,4.1-0.4,6.4-0.5V287.7z
		 M210.4,290.8c-1,0-1.4-0.1-1.4-1.6v-14.3c0-2.7-1.1-4.4-3.4-5.3c-1.1-0.4-2.4-0.6-4-0.6c-4.3,0-8.7,2-8.7,6.6
		c0,1.5,0.6,2.6,1.1,3.2l0.8,1l2.6-1.8l-0.9-1.2c0-0.1-0.4-0.5-0.4-1.2c0-2.6,3.4-3.3,5.5-3.3c1.2,0,2,0.1,2.8,0.4
		c0.9,0.3,1.3,0.8,1.3,2.2v4.7c-2.4,0.1-5.3,0.4-6.9,0.6c-4.6,0.7-7.3,3.4-7.3,7.4c0,3.2,2.5,6.4,7.1,6.4c3.2,0,5.7-1.3,7.4-2.5
		c0.7,1.7,2.2,2.5,4.3,2.5c1.3,0,2.5-0.6,3.6-1.6l-2.2-2.4C211.1,290.8,210.7,290.8,210.4,290.8"/>
</g>
</svg>
