<svg width="167" height="32" viewBox="0 0 109 24" fill="none" xmlns="http://www.w3.org/2000/svg" class="TheHeader__logo"><path d="M38.653 6.435h-8.758V9.34h2.89v8.225h2.92V9.34h2.948V6.435ZM46.972 14.27l-2.208-4.698-1.47-3.122h-1.321l-1.621 3.482-3.573 7.633h3.223l.554-1.185h4.182l.56 1.186h3.228l-1.554-3.297Zm-4.33-2.35.72 1.54H41.92l.72-1.54ZM52.521 6.45h-2.92v11.115h6.921V14.63h-4V6.45ZM57.601 6.45v11.115h6.906v-2.927h-3.986V13.46h3.986v-2.92h-3.986V9.37h3.986V6.45h-6.906ZM72.032 11.696l-5.26-5.245h-1.186v11.114h2.919v-5.262l5.246 5.262h1.2V6.45h-2.919v5.246ZM76.03 9.34h2.89v8.225h2.92V9.34h2.948V6.435h-8.757V9.34ZM88.787 6.45h-2.92v11.115h2.92V6.45ZM89.866 6.45v11.115h2.92V13.46h4.045v-2.92h-4.046V9.37h4.046V6.45h-6.965ZM105.5 6.442l-2.15 3.705-2.133-3.705h-3.365l4.061 7.025v4.09h2.89v-4.09l4.06-7.025H105.5Z" fill="#2E3E49"></path><path d="m8.092 16.855-4.577-8.37L0 12l3.515 3.515 4.577 1.34Z" fill="#34489B"></path><path d="m8.485 3.514-1.34 4.578 8.37-4.578L12 0 8.485 3.514Z" fill="#EA1E45"></path><path d="M8.485 3.514h-4.97v4.971l2.289 4.185 2.681-9.156Z" fill="#C43E95"></path><path d="M3.515 15.515v4.97h4.97l4.185-2.289-9.155-2.681Z" fill="#048AC4"></path><path d="M8.485 20.485 12 24l3.515-3.515 1.34-4.578-8.37 4.578Z" fill="#6DC8C4"></path><path d="M15.515 20.485h4.97v-4.97l-2.289-4.185-2.681 9.155Z" fill="#B7D334"></path><path d="m20.485 8.485-4.577-1.34 4.577 8.37L24 12l-3.515-3.515Z" fill="#F3E912"></path><path d="m15.515 3.514-4.185 2.29 9.155 2.681v-4.97h-4.97Z" fill="#F9AC1F"></path></svg>